####
#
# OBJ File Generated by Meshlab
#
####
# Object unziped\MortaiseTibia-standard.obj
#
# Vertices: 8
# Faces: 12
#
####
vn -1.570796 -1.570796 -1.570796
v -38.500000 -20.250000 -29.999998 1.000000 1.000000 1.000000
vn -1.570796 -1.570796 1.570796
v -38.500000 -20.250000 40.000000 1.000000 1.000000 1.000000
vn -1.570796 1.570796 -1.570796
v -38.500000 9.750000 -29.999998 1.000000 1.000000 1.000000
vn -1.570796 1.570796 1.570796
v -38.500000 9.750000 40.000000 1.000000 1.000000 1.000000
vn 1.559088 -1.379364 -1.448623
v 15.183537 -20.250000 -29.999998 1.000000 1.000000 1.000000
vn 1.559088 -1.379364 1.448623
v 15.183537 -20.250000 40.000000 1.000000 1.000000 1.000000
vn 1.559088 1.762228 -1.692969
v 11.500000 9.750000 -29.999998 1.000000 1.000000 1.000000
vn 1.559088 1.762228 1.692969
v 11.500000 9.750000 40.000000 1.000000 1.000000 1.000000
# 8 vertices, 8 vertices normals

f 1//1 2//2 3//3
f 3//3 2//2 4//4
f 5//5 6//6 1//1
f 1//1 6//6 2//2
f 7//7 8//8 5//5
f 5//5 8//8 6//6
f 3//3 4//4 7//7
f 7//7 4//4 8//8
f 6//6 8//8 2//2
f 2//2 8//8 4//4
f 7//7 5//5 3//3
f 3//3 5//5 1//1
# 12 faces, 0 coords texture

# End of File
